<svg width="5280px" height="3113px" viewBox="0 0 5280 3113" version="1.1" xmlns="http://www.w3.org/2000/svg" xmlns:xlink="http://www.w3.org/1999/xlink">
    <!-- Generator: Sketch 47.1 (45422) - http://www.bohemiancoding.com/sketch -->
    <desc>Created with Sketch.</desc>
    <defs>
        <rect id="path-1" x="1124" y="260" width="3549" height="185"></rect>
        <rect id="path-2" x="1125" y="537" width="3549" height="185"></rect>
        <rect id="path-3" x="1124" y="1000" width="3549" height="185"></rect>
        <rect id="path-4" x="1125" y="1277" width="3549" height="185"></rect>
        <rect id="path-5" x="1125" y="1740" width="3549" height="185"></rect>
        <rect id="path-6" x="1125" y="2017" width="3549" height="185"></rect>
        <rect id="path-7" x="1124" y="2480" width="3549" height="185"></rect>
        <rect id="path-8" x="1125" y="2757" width="3549" height="185"></rect>
    </defs>
    <g id="Page-1" stroke="none" stroke-width="1" fill="none" fill-rule="evenodd">
        <g id="noun_700141_cc" transform="translate(367.000000, 1647.000000)" fill-rule="nonzero" fill="#ffffff">
            <g id="Group">
                <path d="M480.194874,179.332892 C468.166569,176.808143 447.766516,181.33444 427.2752,187.825783 L427.2752,138.212944 C427.2752,62.1662882 365.430122,0.294728721 289.409045,0.294728721 L236.659727,0.294728721 C222.051755,0.294728721 207.589802,2.65521693 193.864028,7.24843497 C186.313635,9.64542557 178.720654,12.8941387 171.298028,16.9215696 C164.100514,20.8212422 157.383646,25.2501994 151.317778,30.0867668 L150.934479,30.3909534 L135.188777,45.137921 L134.513439,45.8253827 C127.066477,54.0019192 120.635562,63.0849318 115.409303,72.8006526 C104.500476,92.9317235 98.7266468,115.557125 98.7266468,138.206861 L98.7266468,187.825783 C78.2292472,181.340524 57.8291935,176.814227 45.8008886,179.332892 C14.7232047,185.84857 -5.18403529,216.32807 1.33205701,247.403775 C7.84814932,278.479481 38.3295895,298.385454 69.4072734,291.869776 C72.5953522,291.200566 76.1423941,289.813475 79.9084642,287.909266 C75.7469263,296.104054 73.343699,305.33916 73.343699,315.140053 C73.343699,348.430237 100.424116,375.508931 133.71642,375.508931 L135.182693,375.508931 C149.261346,408.884287 179.377739,433.864093 215.821616,440.878636 L215.821616,458.302446 L208.240803,458.302446 C163.212233,458.302446 126.573663,494.932599 126.573663,539.964387 C126.573663,542.264038 126.725766,544.521103 126.914374,546.759917 L127.571459,554.705271 L398.424304,554.705271 L399.081389,546.759917 C399.263913,544.521103 399.4221,542.264038 399.4221,539.964387 C399.4221,494.938683 362.789614,458.302446 317.75496,458.302446 L306.134291,458.302446 L306.134291,441.505261 C344.926639,435.549287 377.081212,409.352734 391.384977,373.987997 L392.285427,373.987997 C425.577731,373.987997 452.658148,346.909304 452.658148,313.61912 C452.658148,304.621279 450.626052,296.104054 447.072926,288.4203 C450.473949,290.068991 453.674196,291.255319 456.588489,291.869776 C487.666173,298.385454 518.141529,278.479481 524.663706,247.403775 C531.179798,216.32807 511.272558,185.854654 480.194874,179.332892 Z M125.058717,357.324654 C105.449599,353.309391 90.6591039,335.915999 90.6591039,315.140053 C90.6591039,294.364106 105.455683,276.976799 125.058717,272.955452 L125.058717,357.324654 Z M233.124853,442.740258 C234.305172,442.776761 235.461155,442.916687 236.653643,442.916687 L288.818886,442.916687 L288.818886,475.075297 C288.818886,490.430637 276.328188,502.92054 260.971869,502.92054 C245.615551,502.92054 233.124853,490.430637 233.124853,475.075297 L233.124853,442.740258 Z M317.75496,475.616749 C352.379685,475.616749 380.707347,503.096968 382.058022,537.390969 L143.937741,537.390969 C145.2945,503.096968 173.616077,475.616749 208.240803,475.616749 L215.839869,475.616749 C216.131907,500.268033 236.258175,520.234843 260.971869,520.234843 C285.685564,520.234843 305.811832,500.268033 306.10387,475.616749 L317.75496,475.616749 Z M382.112779,332.904552 C382.112779,384.020072 340.52782,425.602384 289.409045,425.602384 L236.659727,425.602384 C185.510532,425.602384 143.895152,384.020072 143.895152,332.904552 L143.895152,212.732584 C151.390788,219.528113 160.729912,223.610298 170.896476,223.610298 C182.809182,223.610298 193.602411,218.031515 201.596944,209.003256 C209.591478,218.031515 220.384706,223.610298 232.297413,223.610298 C244.210119,223.610298 255.003348,218.031515 262.997881,209.003256 C270.992415,218.031515 281.785643,223.610298 293.69835,223.610298 C305.611056,223.610298 316.404285,218.031515 324.398818,209.003256 C332.393352,218.031515 343.18658,223.610298 355.099287,223.610298 C365.265851,223.610298 374.611059,219.528113 382.106695,212.7265 L382.106695,332.904552 L382.112779,332.904552 Z M400.94313,355.803721 L400.94313,271.440602 C420.552248,275.455866 435.342743,292.849257 435.342743,313.625204 C435.342743,334.40115 420.552248,351.788458 400.94313,355.803721 Z" id="Shape"></path>
                <path d="M211.580985,357.537585 C211.580985,378.812397 232.601619,396.120616 258.434792,396.120616 L267.560971,396.120616 C293.394144,396.120616 314.414778,378.812397 314.414778,357.537585 L314.414778,343.672758 L211.580985,343.672758 L211.580985,357.537585 Z M217.074945,349.160285 L308.932986,349.160285 L308.932986,357.537585 C308.932986,375.788782 290.37642,390.627006 267.567055,390.627006 L258.440876,390.627006 C235.63151,390.627006 217.074945,375.788782 217.074945,357.537585 L217.074945,349.160285 Z" id="Shape"></path>
                <ellipse id="Oval" cx="204.103602" cy="288.249955" rx="12.8192404" ry="12.8184244"></ellipse>
                <ellipse id="Oval" cx="321.892161" cy="288.249955" rx="12.8192404" ry="12.8184244"></ellipse>
                <path d="M263.934836,334.693169 C279.029537,334.693169 291.313375,322.40403 291.313375,307.310289 C291.313375,293.202114 268.704786,262.576604 266.125119,259.133212 L263.934836,256.206936 L261.744553,259.133212 C259.164886,262.576604 236.550213,293.202114 236.550213,307.310289 C236.550213,322.410113 248.83405,334.693169 263.934836,334.693169 Z M263.934836,265.417707 C271.612995,276.125076 285.837667,297.904839 285.837667,307.316373 C285.837667,319.392582 276.017898,329.223894 263.934836,329.223894 C251.851774,329.223894 242.02592,319.398666 242.02592,307.316373 C242.02592,297.904839 256.250592,276.118993 263.934836,265.417707 Z" id="Shape"></path>
            </g>
        </g>
        <rect id="Rectangle" x="0" y="0" width="5280" height="3113"></rect>
        <g id="Rectangle-3">
            <use fill="#ffffff" fill-rule="evenodd" xlink:href="#path-1"></use>
            <rect stroke="#979797" stroke-width="1" x="1124.5" y="260.5" width="3548" height="184"></rect>
        </g>
        <g id="Rectangle-3">
            <use fill="#ffffff" fill-rule="evenodd" xlink:href="#path-2"></use>
            <rect stroke="#979797" stroke-width="1" x="1125.5" y="537.5" width="3548" height="184"></rect>
        </g>
        <g id="Rectangle-3">
            <use fill="#ffffff" fill-rule="evenodd" xlink:href="#path-3"></use>
            <rect stroke="#979797" stroke-width="1" x="1124.5" y="1000.5" width="3548" height="184"></rect>
        </g>
        <g id="Rectangle-3">
            <use fill="#ffffff" fill-rule="evenodd" xlink:href="#path-4"></use>
            <rect stroke="#979797" stroke-width="1" x="1125.5" y="1277.5" width="3548" height="184"></rect>
        </g>
        <g id="Rectangle-3">
            <use fill="#ffffff" fill-rule="evenodd" xlink:href="#path-5"></use>
            <rect stroke="#979797" stroke-width="1" x="1125.5" y="1740.5" width="3548" height="184"></rect>
        </g>
        <g id="Rectangle-3">
            <use fill="#ffffff" fill-rule="evenodd" xlink:href="#path-6"></use>
            <rect stroke="#979797" stroke-width="1" x="1125.5" y="2017.5" width="3548" height="184"></rect>
        </g>
        <g id="Rectangle-3">
            <use fill="#ffffff" fill-rule="evenodd" xlink:href="#path-7"></use>
            <rect stroke="#979797" stroke-width="1" x="1124.5" y="2480.5" width="3548" height="184"></rect>
        </g>
        <g id="Rectangle-3">
            <use fill="#ffffff" fill-rule="evenodd" xlink:href="#path-8"></use>
            <rect stroke="#979797" stroke-width="1" x="1125.5" y="2757.5" width="3548" height="184"></rect>
        </g>
        <g id="noun_700146_cc" transform="translate(416.000000, 2387.000000)" fill-rule="nonzero" fill="#ffffff">
            <g id="Group">
                <path d="M14.7517666,310.742193 C14.7517666,345.729937 43.1760579,374.189448 78.1205024,374.189448 L79.6595395,374.189448 C94.4432363,409.266707 126.047779,435.520303 164.293809,442.892538 L164.293809,453.174024 L156.349567,453.174024 C109.08644,453.174024 70.6296702,491.672051 70.6296702,539.000136 C70.6296702,541.417053 70.7893214,543.789211 70.9872888,546.142188 L71.6769818,554.492699 L355.970984,554.492699 L356.660677,546.142188 C356.852258,543.789211 357.018295,541.417053 357.018295,539.000136 C357.018295,491.678445 318.567911,453.174024 271.298398,453.174024 L259.10105,453.174024 L259.10105,443.55751 C299.81848,437.297824 333.568734,409.765436 348.582328,372.597353 L349.527463,372.597353 C384.471907,372.597353 412.896199,344.137841 412.896199,309.150097 C412.896199,288.587125 403.036144,270.338766 387.850126,258.73373 L387.850126,79.2169368 C387.850126,78.5199953 387.709633,77.8422356 387.53721,77.1708699 C401.867497,55.5273187 410.641925,29.8747551 411.746711,2.23367022 L148.897052,2.23367022 C148.39894,1.67100183 147.971075,1.06357572 147.460191,0.507301284 L145.735959,2.23367022 L119.106146,2.23367022 C119.361588,8.57647757 120.057667,14.8041937 121.092207,20.9104245 L27.0385193,20.9104245 C27.7026681,37.4515965 32.3006213,52.9569471 39.8106116,66.6272315 L39.8106116,108.290268 L0.925976689,147.223085 C12.4144737,157.837057 25.742152,165.266837 39.8106116,169.729821 L39.8106116,260.325826 C24.6118218,271.924468 14.7517666,290.179221 14.7517666,310.742193 Z M69.0331587,355.077905 C48.450932,350.857892 32.9264539,332.577563 32.9264539,310.742193 C32.9264539,288.906823 48.4573181,270.632888 69.0331587,266.406481 L69.0331587,355.077905 Z M182.468496,444.849089 C183.713775,444.887453 184.927124,445.034514 186.178789,445.034514 L240.926362,445.034514 L240.926362,470.795775 C240.926362,486.934128 227.81581,500.060926 211.697429,500.060926 C195.579049,500.060926 182.468496,486.934128 182.468496,470.795775 L182.468496,444.849089 L182.468496,444.849089 Z M271.298398,471.364837 C307.641386,471.364837 337.374817,500.24635 338.792519,536.289097 L88.8490599,536.289097 C90.2731481,500.239956 120.000193,471.364837 156.343181,471.364837 L164.319353,471.364837 C164.625883,497.273159 185.750924,518.258133 211.691043,518.258133 C237.631163,518.258133 258.756203,497.273159 259.062734,471.364837 L271.298398,471.364837 Z M394.721512,309.143703 C394.721512,330.979073 379.190647,349.253008 358.614807,353.479415 L358.614807,264.814385 C379.190647,269.034398 394.721512,287.308333 394.721512,309.143703 Z M165.226172,114.486015 C168.246771,113.418224 171.197125,112.216159 174.077232,110.879822 C199.116918,130.918489 230.86834,142.900769 265.423235,142.900769 C292.155225,142.900769 317.194911,135.713959 338.760589,123.188193 C338.766975,123.73168 338.843608,124.255984 338.843608,124.805865 L338.843608,329.412553 C338.843608,383.134597 295.194983,426.837307 241.545809,426.837307 L186.178789,426.837307 C132.484913,426.837307 88.8043575,383.134597 88.8043575,329.412553 L88.8043575,173.105831 C109.207775,169.608335 128.781006,160.074943 144.535382,144.301046 C153.411986,135.407049 160.23867,125.26623 165.226172,114.486015 Z" id="Shape"></path>
                <path d="M159.855507,355.301693 C159.855507,377.661368 181.919296,395.852181 209.034448,395.852181 L218.613517,395.852181 C245.728669,395.852181 267.792459,377.661368 267.792459,355.301693 L267.792459,340.729861 L159.855507,340.729861 L159.855507,355.301693 Z M165.61572,346.497212 L262.032245,346.497212 L262.032245,355.301693 C262.032245,374.48357 242.554804,390.078436 218.613517,390.078436 L209.034448,390.078436 C185.093161,390.078436 165.61572,374.48357 165.61572,355.301693 L165.61572,346.497212 Z" id="Shape"></path>
                <ellipse id="Oval" cx="152.007056" cy="277.429666" rx="13.4553992" ry="13.4720717"></ellipse>
                <ellipse id="Oval" cx="275.640909" cy="277.429666" rx="13.4553992" ry="13.4720717"></ellipse>
                <path d="M214.801048,330.710527 C232.407377,330.710527 246.731278,316.368877 246.731278,298.740732 C246.731278,282.263499 220.363294,246.502087 217.355466,242.473892 L214.801048,239.053124 L212.246629,242.473892 C209.238802,246.502087 182.870817,282.263499 182.870817,298.740732 C182.870817,316.368877 197.194719,330.710527 214.801048,330.710527 Z M214.801048,249.807763 C223.754284,262.307953 240.345232,287.743122 240.345232,298.740732 C240.345232,312.845805 228.888666,324.316568 214.801048,324.316568 C200.71343,324.316568 189.256863,312.845805 189.256863,298.740732 C189.256863,287.749516 205.847811,262.314347 214.801048,249.807763 Z" id="Shape"></path>
            </g>
        </g>
        <g id="noun_700133_cc" transform="translate(370.000000, 907.000000)">
            <g id="Group">
                <path d="M307.159815,458.136848 L307.811953,458.136848 C308.098407,458.136848 308.372671,458.179536 308.659124,458.179536 C307.507216,455.599968 306.452824,452.88014 305.636127,449.818808 C306.41016,452.721585 306.855077,455.465806 307.159815,458.136848 Z" id="Shape"></path>
                <path d="M198.758552,458.136848 C199.057195,455.465806 199.508207,452.721585 200.282241,449.818808 C199.465544,452.874041 198.411152,455.599968 197.259243,458.179536 C197.545697,458.179536 197.819961,458.136848 198.106414,458.136848 L198.758552,458.136848 L198.758552,458.136848 Z" id="Shape"></path>
                <path d="M449.545415,200.423969 C524.431636,180.348465 451.696863,54.2850326 396.868472,109.138969 C451.690768,54.2850326 325.700051,-18.4978168 305.636127,56.4316236 C325.700051,-18.4978168 180.218316,-18.4978168 200.288335,56.4316236 C180.224411,-18.4978168 54.2336939,54.2850326 109.05599,109.138969 C54.2336939,54.2850326 -18.5071735,180.348465 56.3790466,200.423969 C-18.5071735,180.348465 -18.5071735,325.914163 56.3790466,305.832561 C-18.5071735,325.908065 54.2275991,451.971497 109.05599,397.117561 C76.266223,429.926252 108.166156,469.12593 143.393824,479.316139 C126.803908,494.305686 116.30265,515.917954 116.30265,539.993923 C116.30265,542.299069 116.455019,544.561527 116.643956,546.80569 L117.30219,554.77003 L388.628367,554.77003 L389.286601,546.80569 C389.469443,544.561527 389.627907,542.299069 389.627907,539.993923 C389.627907,515.917954 379.126649,494.305686 362.536733,479.316139 C397.764401,469.12593 429.670429,429.926252 396.874567,397.117561 C451.696863,451.971497 524.43773,325.908065 449.55151,305.832561 C524.431636,325.908065 524.431636,180.342366 449.545415,200.423969 Z M223.03395,452.154445 C224.216332,452.191035 225.374335,452.331295 226.568907,452.331295 L278.825312,452.331295 L278.825312,474.949778 C278.825312,490.341811 266.312786,502.861558 250.929631,502.861558 C235.546477,502.861558 223.03395,490.341811 223.03395,474.949778 L223.03395,452.154445 Z M374.854227,344.635852 C374.854227,397.294411 332.038593,440.134756 279.410408,440.134756 L226.568907,440.134756 C173.904153,440.134756 131.06414,397.294411 131.06414,344.635852 L131.06414,259.260075 C131.06414,232.872862 142.2602,207.382094 161.775596,189.337314 L163.732012,187.526128 L163.732012,187.465146 C164.506045,186.788238 165.334931,186.123526 166.163818,185.458815 C180.730276,220.456785 217.896074,253.186199 267.379367,269.962539 C305.855538,283.006738 344.228098,283.793414 374.854227,274.633813 L374.854227,344.635852 Z M391.1455,367.589739 L391.1455,283.018934 C410.788886,287.043792 425.605229,304.478745 425.605229,325.304337 C425.605229,346.129928 410.782792,363.558783 391.1455,367.589739 Z M114.772867,284.543502 L114.772867,369.108208 C95.129481,365.08335 80.3131385,347.648397 80.3131385,326.822806 C80.3131385,305.997215 95.129481,288.574458 114.772867,284.543502 Z M200.282241,449.824906 C199.508207,452.721585 199.057195,455.465806 198.758552,458.142946 L198.106414,458.142946 C197.819961,458.142946 197.545697,458.185634 197.259243,458.185634 C198.411152,455.606066 199.465544,452.88014 200.282241,449.824906 Z M372.227389,537.414355 L133.690978,537.414355 C135.044013,503.038408 163.421179,475.492524 198.106414,475.492524 L205.718759,475.492524 C206.011308,500.202713 226.172748,520.217234 250.929631,520.217234 C275.686515,520.217234 295.847955,500.202713 296.140503,475.492524 L307.811953,475.492524 C342.497188,475.492524 370.874354,503.038408 372.227389,537.414355 Z M307.811953,458.136848 L307.159815,458.136848 C306.861172,455.465806 306.41016,452.721585 305.636127,449.818808 C306.452824,452.874041 307.507216,455.599968 308.659124,458.179536 C308.372671,458.179536 308.098407,458.136848 307.811953,458.136848 Z" id="Shape" fill="#ffffff" fill-rule="nonzero"></path>
                <path d="M201.452433,369.327746 C201.452433,390.653395 222.509802,408.002972 248.38812,408.002972 L257.530248,408.002972 C283.408566,408.002972 304.465934,390.653395 304.465934,369.327746 L304.465934,355.429789 L201.452433,355.429789 L201.452433,369.327746 Z M206.949899,360.930428 L298.968468,360.930428 L298.968468,369.327746 C298.968468,387.622555 280.379474,402.496235 257.530248,402.496235 L248.38812,402.496235 C225.538894,402.496235 206.949899,387.622555 206.949899,369.327746 L206.949899,360.930428 Z" id="Shape" fill="#ffffff" fill-rule="nonzero"></path>
                <ellipse id="Oval" fill="#ffffff" fill-rule="nonzero" cx="193.961983" cy="295.05082" rx="12.8416429" ry="12.8490543"></ellipse>
                <ellipse id="Oval" fill="#ffffff" fill-rule="nonzero" cx="311.956385" cy="295.05082" rx="12.8416429" ry="12.8490543"></ellipse>
            </g>
        </g>
        <g id="noun_700132_cc" transform="translate(427.000000, 167.000000)">
            <g id="Group">
                <path d="M232.847647,441.45103 L232.847647,458.242662 L244.46326,458.242662 C253.828729,458.242662 262.798901,459.909053 271.17917,462.822198 C267.54245,451.279091 267.694487,439.048751 271.325126,427.846221 C259.679105,434.651667 246.689079,439.32851 232.847647,441.45103 Z" id="Shape"></path>
                <path d="M60.4987082,375.476523 L61.9643432,375.476523 C76.0368712,408.840843 106.140162,433.812389 142.568184,440.824613 L142.568184,458.242662 L135.002832,458.242662 C89.9938513,458.242662 53.3712221,494.860703 53.3712221,539.877601 C53.3712221,542.176491 53.5232589,544.432809 53.7117846,546.670883 L54.3685836,554.61361 L325.097508,554.61361 L325.754307,546.670883 C325.936752,544.432809 326.09487,542.176491 326.09487,539.877601 C326.09487,528.346658 323.662281,517.387397 319.332272,507.43162 C350.007221,523.590752 385.334496,536.477919 385.334496,536.477919 C385.334496,536.477919 391.440295,440.733387 374.07769,414.156267 C359.840962,392.365462 333.343985,383.449659 309.607997,390.510537 C312.861585,385.25593 315.719877,379.745891 318.061244,373.950011 L318.961302,373.950011 C352.239121,373.950011 379.307757,346.880271 379.307757,313.601095 C379.307757,298.950229 374.053364,285.509626 365.338614,275.049067 C374.831793,269.08898 383.874943,262.167982 392.188316,254.036721 L353.917608,217.874809 L353.917608,138.259001 C353.917608,62.2374908 292.099437,0.386389815 216.111434,0.386389815 L163.385065,0.386389815 C148.765204,0.386389815 134.303462,2.7460975 120.614067,7.33779674 C113.085204,9.72183131 105.495525,12.9694702 98.0396398,17.0016512 C90.839176,20.9182794 84.12523,25.3457722 78.0741646,30.1685768 L77.6971133,30.4726628 L61.9582617,45.2147541 L61.2832182,45.9019886 C53.8394955,54.0819031 47.4052973,63.1619124 42.1873936,72.8683388 C31.2833129,92.9988348 25.5119952,115.604591 25.5119952,138.265083 L25.5119952,266.054201 C10.1866837,277.007381 0.146172135,294.905885 0.146172135,315.13977 C0.152253608,348.406783 27.220889,375.476523 60.4987082,375.476523 Z M70.6730122,332.886232 L70.6730122,175.223701 C87.3301662,171.01515 103.105507,162.452087 116.138103,149.38855 C117.524679,148.008 118.765299,146.542305 120.04849,145.100937 C121.526288,185.68426 138.183442,225.72631 170.044278,255.83691 C172.914733,258.549358 175.87641,261.085435 178.886739,263.542451 C170.701077,275.894426 160.259188,293.610479 160.259188,303.72438 C160.259188,320.491685 173.899932,334.132984 190.666552,334.132984 C207.433173,334.132984 221.073916,320.491685 221.073916,303.72438 C221.073916,299.041455 218.811608,292.716466 215.594509,286.056981 C225.184992,290.277695 235.091711,293.501008 245.174793,295.745163 C245.636985,295.872879 246.099177,295.988431 246.585694,296.067494 C260.092646,298.950229 273.885426,300.099675 287.605229,299.467176 C294.71447,299.144844 301.77506,298.196096 308.799161,296.931098 L308.799161,332.898395 C308.799161,383.997014 267.232295,425.565576 216.141842,425.565576 L163.409391,425.565576 C112.264205,425.553412 70.6730122,383.990932 70.6730122,332.886232 Z M206.387159,281.63557 C211.22193,290.247287 214.986362,298.609653 214.986362,303.712217 C214.986362,317.128493 204.0762,328.0391 190.660471,328.0391 C177.244742,328.0391 166.334579,317.128493 166.334579,303.712217 C166.334579,295.726917 175.535848,279.756318 183.685021,267.343526 C190.934137,272.817075 198.535978,277.560817 206.387159,281.63557 Z M271.17917,462.828279 C262.792819,459.909053 253.828729,458.248743 244.46326,458.248743 L232.847647,458.248743 L232.847647,441.457112 C246.695161,439.32851 259.679105,434.651667 271.325126,427.852303 C267.694487,439.054832 267.54245,451.285173 271.17917,462.828279 Z M163.397228,442.86199 L215.539776,442.86199 L215.539776,475.009966 C215.539776,490.360229 203.054512,502.846002 187.704875,502.846002 C172.355237,502.846002 159.869974,490.360229 159.869974,475.009966 L159.869974,442.68562 C161.04978,442.72211 162.205259,442.86199 163.397228,442.86199 Z M70.7155825,537.305033 C72.071751,503.016291 100.381007,475.551239 134.990669,475.551239 L142.586428,475.551239 C142.878339,500.194372 162.995851,520.15458 187.698793,520.15458 C212.401736,520.15458 232.519248,500.194372 232.811159,475.551239 L244.457179,475.551239 C279.066841,475.551239 307.382178,503.022372 308.732265,537.305033 L70.7155825,537.305033 Z M361.999885,313.607177 C361.999885,334.376253 347.209743,351.757811 327.615238,355.777829 L327.615238,292.418461 C335.186672,290.08308 342.575661,287.096955 349.800451,283.618211 C357.341477,291.372405 361.999885,301.9546 361.999885,313.607177 Z M51.8447724,272.963036 L51.8447724,357.298259 C32.2441856,353.284323 17.4601252,335.896684 17.4601252,315.127607 C17.4601252,294.35853 32.2441856,276.976972 51.8447724,272.963036 Z" id="Shape" fill="#ffffff" fill-rule="nonzero"></path>
                <path d="M194.29111,396.081393 C220.113043,396.081393 241.124532,378.778897 241.124532,357.511119 L241.124532,343.650878 L138.335479,343.650878 L138.335479,357.511119 C138.335479,378.778897 159.346967,396.081393 185.168901,396.081393 L194.29111,396.081393 Z M143.820967,357.511119 L143.820967,349.13659 L235.639043,349.13659 L235.639043,357.511119 C235.639043,375.756282 217.090551,390.589599 194.29111,390.589599 L185.168901,390.589599 C162.369459,390.589599 143.820967,375.756282 143.820967,357.511119 Z" id="Shape" fill="#ffffff" fill-rule="nonzero"></path>
                <ellipse id="Oval" fill="#ffffff" fill-rule="nonzero" cx="130.861349" cy="283.441841" rx="12.8136632" ry="12.8141858"></ellipse>
            </g>
        </g>
        <path d="M4873,587 C4794.57557,587 4731,523.424434 4731,445 C4731,366.575566 4794.57557,303 4873,303 C4951.42443,303 5015,366.575566 5015,445 C5015,523.424434 4951.42443,587 4873,587 Z M4806.39599,421.20598 L4787,440.793466 L4853.5495,508 L4958,402.587486 L4938.60401,383 L4853.5495,468.825028 L4806.39599,421.20598 Z" id="Combined-Shape" stroke="#979797" fill="#ffffff"></path>
        <path d="M4873,1327 C4794.57557,1327 4731,1263.42443 4731,1185 C4731,1106.57557 4794.57557,1043 4873,1043 C4951.42443,1043 5015,1106.57557 5015,1185 C5015,1263.42443 4951.42443,1327 4873,1327 Z M4806.39599,1161.20598 L4787,1180.79347 L4853.5495,1248 L4958,1142.58749 L4938.60401,1123 L4853.5495,1208.82503 L4806.39599,1161.20598 Z" id="Combined-Shape" stroke="#979797" fill="#ffffff"></path>
        <path d="M4873,2067 C4794.57557,2067 4731,2003.42443 4731,1925 C4731,1846.57557 4794.57557,1783 4873,1783 C4951.42443,1783 5015,1846.57557 5015,1925 C5015,2003.42443 4951.42443,2067 4873,2067 Z M4806.39599,1901.20598 L4787,1920.79347 L4853.5495,1988 L4958,1882.58749 L4938.60401,1863 L4853.5495,1948.82503 L4806.39599,1901.20598 Z" id="Combined-Shape" stroke="#979797" fill="#ffffff"></path>
        <path d="M4873,2807 C4794.57557,2807 4731,2743.42443 4731,2665 C4731,2586.57557 4794.57557,2523 4873,2523 C4951.42443,2523 5015,2586.57557 5015,2665 C5015,2743.42443 4951.42443,2807 4873,2807 Z M4806.39599,2641.20598 L4787,2660.79347 L4853.5495,2728 L4958,2622.58749 L4938.60401,2603 L4853.5495,2688.82503 L4806.39599,2641.20598 Z" id="Combined-Shape" stroke="#979797" fill="#ffffff"></path>
    </g>
</svg>
