<svg width="5280px" height="3029px" viewBox="0 0 5280 3029" version="1.1" xmlns="http://www.w3.org/2000/svg" xmlns:xlink="http://www.w3.org/1999/xlink">
    <!-- Generator: Sketch 47.1 (45422) - http://www.bohemiancoding.com/sketch -->
    <desc>Created with Sketch.</desc>
    <defs></defs>
    <g id="Page-1" stroke="none" stroke-width="1" fill="none" fill-rule="evenodd">
        <rect id="Rectangle" x="0" y="0" width="5280" height="3029"></rect>
        <g id="noun_1002247_cc" transform="translate(2640.000000, 2237.000000)" fill-rule="nonzero" fill="#ffffff">
            <path d="M42.3743478,449.349169 L399.625652,449.349169 C423.036128,449.322645 442.000015,430.329196 442,406.908767 L442,179.951149 C441.996369,176.410277 440.431841,173.051269 437.72413,170.770948 L378.582609,120.784518 L378.582609,33.6447126 C378.582609,15.0632509 363.52575,2.13446483e-15 344.952174,0 L99.4019565,0 C80.8283803,0 65.7715217,15.0632509 65.7715217,33.6447126 L65.7715217,118.958091 L4.27586957,170.770948 C1.56815936,173.051269 0.00363115622,176.410277 0,179.951149 L0,406.908767 C-1.50127153e-05,430.329196 18.9638724,449.322645 42.3743478,449.349169 Z M399.577609,425.317231 L42.3743478,425.317231 C32.2307154,425.290735 24.0217046,417.05674 24.0217391,406.908767 L24.0217391,202.877617 L160.945652,299.774389 L63.7536957,374.177268 C58.4469596,378.15901 57.3714697,385.690635 61.3515217,390.999624 C65.3315738,396.308613 72.8600031,397.38456 78.1667391,393.402818 L181.508261,314.28968 L215.138696,338.321617 C219.298052,341.268946 224.863905,341.268946 229.023261,338.321617 L262.653696,314.28968 L366.043261,393.258626 C371.349997,397.240368 378.878426,396.164422 382.858478,390.855433 C386.83853,385.546444 385.76304,378.014818 380.456304,374.033076 L283.456522,299.774389 L417.978261,204.607916 L417.978261,406.956831 C417.951859,417.086039 409.750562,425.290818 399.625652,425.317231 L399.577609,425.317231 Z M411.252174,179.903085 L378.582609,203.021809 L378.582609,152.218293 L411.252174,179.903085 Z M99.4019565,24.0800014 L345.000217,24.0800014 C350.306953,24.0800014 354.608913,28.3837874 354.608913,33.6927765 L354.608913,219.892229 L222.201087,313.664849 L89.8413043,219.892229 L89.8413043,33.6447126 C89.8675855,28.3731975 94.1326785,24.1062938 99.4019565,24.0800014 Z M65.7715217,203.021809 L31.7567391,178.989871 L65.7715217,150.151546 L65.7715217,203.021809 Z M221,251.950833 L224.074783,251.950833 C230.708203,251.950833 236.085652,246.571101 236.085652,239.934865 C236.085652,233.298628 230.708203,227.918896 224.074783,227.918896 L221,227.918896 C178.705313,227.918896 144.418696,193.617722 144.418696,151.305079 C144.418696,108.992436 178.705313,74.691262 221,74.691262 C263.294687,74.691262 297.581304,108.992436 297.581304,151.305079 L297.581304,171.828354 C297.156945,178.910019 291.292564,184.43571 284.201196,184.43571 C277.109827,184.43571 271.245446,178.910019 270.821087,171.828354 L270.821087,151.305079 C270.972792,128.002175 255.009052,107.685955 232.338926,102.330839 C209.6688,96.9757233 186.3075,108.002619 176.024224,128.912252 C165.740947,149.821886 171.264222,175.066167 189.338619,189.766068 C207.413016,204.465969 233.242738,204.721068 251.603696,190.381009 C259.934931,205.284347 277.299418,212.648479 293.798629,208.275521 C310.29784,203.902563 321.740195,188.903455 321.603043,171.828354 L321.603043,151.305079 C321.603043,95.7199636 276.561527,50.6593244 221,50.6593244 C165.438473,50.6593244 120.396957,95.7199636 120.396957,151.305079 C120.396957,206.890194 165.438473,251.950833 221,251.950833 Z M221,177.11538 C210.565138,177.11538 201.157759,170.826902 197.164511,161.182253 C193.171262,151.537605 195.378544,140.436134 202.757106,133.05444 C210.135668,125.672746 221.232427,123.464526 230.872983,127.45947 C240.513539,131.454414 246.799348,140.865787 246.799348,151.305079 C246.799348,165.559715 235.248586,177.11538 221,177.11538 Z" id="Shape"></path>
        </g>
        <g id="noun_1375855_cc" transform="translate(1433.000000, 1654.000000)" fill-rule="nonzero" fill="#ffffff">
            <path d="M432.111331,208.539078 L379.087594,80.5408863 C351.606082,14.2129934 274.885481,-17.5835101 208.535366,9.87585084 L80.5369376,62.9160651 C14.2033974,90.3920011 -17.5931647,167.134561 9.88834702,233.467979 L62.912084,361.482746 C90.3880706,427.810639 167.136297,459.590568 233.464312,432.109107 L361.48484,379.085467 C427.796281,351.609531 459.592843,274.883546 432.111331,208.539078 Z M347.379432,345.06238 L219.381004,398.080494 C208.010488,402.776763 196.070892,405.169098 183.83847,405.169098 C145.605245,405.169098 111.46607,382.488881 96.9352341,347.382889 L43.9114972,219.384697 C34.3752911,196.378504 34.4305414,170.930251 44.055148,147.714108 C53.6576545,124.492439 71.6250602,106.475341 94.6091954,96.9446776 L222.624199,43.9044633 C233.95604,39.2081943 245.90116,36.8379598 258.111482,36.8379598 C296.383382,36.8379598 330.505983,59.5181764 345.047869,94.6407433 L398.071606,222.62236 C417.845697,270.375128 395.115713,325.277275 347.379432,345.06238 Z" id="Shape"></path>
            <path d="M362.69657,232.868656 L348.607308,198.857431 L291.637442,222.455479 L270.525633,171.449684 L327.473415,147.835072 L313.384152,113.829368 L256.447412,137.427416 L232.851211,80.469657 L198.848168,94.5600217 L222.444369,151.51226 L171.442565,172.631243 L147.846364,115.690047 L113.848842,129.763848 L137.439522,186.716086 L80.469657,210.325177 L94.5589192,244.330881 L151.528784,220.732833 L172.640594,271.744149 L115.67625,295.336676 L129.765512,329.34238 L186.735377,305.744332 L210.326058,362.69657 L244.329101,348.622769 L220.732899,291.653967 L271.718141,270.534984 L295.29778,327.509307 L329.317385,313.413421 L305.726705,256.461183 L362.69657,232.868656 Z M206.649158,257.648263 L185.531827,206.642468 L236.517069,185.523485 L257.634399,236.551365 L206.649158,257.648263 Z" id="Shape"></path>
        </g>
        <g id="noun_1397628_cc" transform="translate(2198.000000, 483.000000)" fill-rule="nonzero" fill="#ffffff">
            <path d="M219.151136,409.730904 C219.096231,409.730904 219.035835,409.730904 218.98642,409.730904 C213.825321,409.681489 208.933257,407.397428 205.578542,403.466207 L149.432369,337.667679 L128.041258,337.667679 C57.6526462,337.667679 0.386403963,280.401437 0.386403963,210.012825 L0.386403963,127.654854 C0.386403963,57.2662422 57.6526462,0 128.041258,0 L313.692596,0 C384.081208,0 441.34745,57.2662422 441.34745,127.654854 L441.34745,210.012825 C441.34745,280.401437 384.081208,337.667679 313.692596,337.667679 L291.016701,337.667679 L232.504108,403.718772 C229.11645,407.540182 224.25184,409.730904 219.151136,409.730904 Z M128.041258,35.6884539 C77.3307106,35.6884539 36.0748579,76.9443067 36.0748579,127.654854 L36.0748579,210.012825 C36.0748579,260.723373 77.3307106,301.979225 128.041258,301.979225 L157.668166,301.979225 C162.889661,301.979225 167.847611,304.268777 171.24625,308.243922 L219.4037,364.692075 L269.625591,307.991357 C273.007758,304.169948 277.872369,301.979225 282.984054,301.979225 L313.692596,301.979225 C364.403143,301.979225 405.658996,260.723373 405.658996,210.012825 L405.658996,127.654854 C405.658996,76.9443067 364.403143,35.6884539 313.692596,35.6884539 L128.041258,35.6884539 L128.041258,35.6884539 Z M305.967418,207.953876 C284.208442,207.953876 266.501479,190.246912 266.501479,168.487936 C266.501479,146.72896 284.208442,129.021997 305.967418,129.021997 C327.726394,129.021997 345.433358,146.72896 345.433358,168.487936 C345.433358,190.246912 327.726394,207.953876 305.967418,207.953876 Z M305.967418,164.715941 C303.886507,164.715941 302.189932,166.412515 302.189932,168.493427 C302.189932,170.574338 303.886507,172.270912 305.967418,172.270912 C308.048329,172.270912 309.744904,170.574338 309.744904,168.493427 C309.744904,166.412515 308.048329,164.715941 305.967418,164.715941 Z M222.978036,207.953876 C201.219061,207.953876 183.512097,190.246912 183.512097,168.487936 C183.512097,146.72896 201.219061,129.021997 222.978036,129.021997 C244.737012,129.021997 262.443976,146.72896 262.443976,168.487936 C262.443976,190.246912 244.737012,207.953876 222.978036,207.953876 Z M222.978036,164.715941 C220.897125,164.715941 219.200551,166.412515 219.200551,168.493427 C219.200551,170.574338 220.897125,172.270912 222.978036,172.270912 C225.058948,172.270912 226.755522,170.574338 226.755522,168.493427 C226.755522,166.412515 225.058948,164.715941 222.978036,164.715941 Z M139.994145,207.953876 C118.235169,207.953876 100.528206,190.246912 100.528206,168.487936 C100.528206,146.72896 118.235169,129.021997 139.994145,129.021997 C161.753121,129.021997 179.460085,146.72896 179.460085,168.487936 C179.460085,190.246912 161.74763,207.953876 139.994145,207.953876 Z M139.994145,164.715941 C137.913234,164.715941 136.21666,166.412515 136.21666,168.493427 C136.21666,170.574338 137.913234,172.270912 139.994145,172.270912 C142.075057,172.270912 143.771631,170.574338 143.771631,168.493427 C143.771631,166.412515 142.069566,164.715941 139.994145,164.715941 Z" id="Shape"></path>
        </g>
        <g id="noun_1295152_cc" transform="translate(2419.000000, 1155.000000)" fill-rule="nonzero" fill="#ffffff">
            <g id="Group">
                <path d="M49.1111111,0 C22.1865993,0 0,22.1776288 0,49.0908924 L0,670.909108 C0,697.822371 22.1865993,720 49.1111111,720 L392.888889,720 C419.813401,720 442,697.822371 442,670.909108 L442,49.0908924 C442,22.1776288 419.813401,0 392.888889,0 L49.1111111,0 Z M49.1111111,32.7272616 L392.888889,32.7272616 C402.241281,32.7272616 409.259259,39.7423501 409.259259,49.0908924 L409.259259,81.8181539 L32.7407407,81.8181539 L32.7407407,49.0908924 C32.7407407,39.7423501 39.7587185,32.7272616 49.1111111,32.7272616 Z M32.7407407,114.545415 L409.259259,114.545415 L409.259259,572.727323 L32.7407407,572.727323 L32.7407407,114.545415 Z M220.488426,188.181754 C217.777943,188.311006 215.141828,189.101375 212.814815,190.482481 L98.2222222,255.937004 C93.158662,258.849538 90.0414429,264.205208 90.037037,269.999908 L90.037037,400.9092 C90.0414429,406.703899 93.158662,412.05957 98.2222222,414.972104 L212.814815,480.426627 C215.441244,481.978324 218.452856,482.775045 221.511574,482.727354 C224.222057,482.598101 226.858172,481.807733 229.185185,480.426627 L343.777778,414.972104 C348.841338,412.05957 351.958557,406.703899 351.962963,400.9092 L351.962963,269.999908 C351.958557,264.205208 348.841338,258.849538 343.777778,255.937004 L229.185185,190.482481 C226.558756,188.930784 223.547144,188.134062 220.488426,188.181754 L220.488426,188.181754 Z M221,223.465833 L302.596065,269.999908 L221,316.533983 L139.403935,269.999908 L221,223.465833 Z M122.777778,298.124898 L204.62963,344.914492 L204.62963,438.238732 L122.777778,391.449385 L122.777778,298.124898 Z M319.222222,298.124898 L319.222222,391.449385 L237.37037,438.238732 L237.37037,344.914492 L319.222222,298.124898 Z M32.7407407,605.454585 L409.259259,605.454585 L409.259259,670.909108 C409.259259,680.25765 402.241281,687.272738 392.888889,687.272738 L49.1111111,687.272738 C39.7587185,687.272738 32.7407407,680.25765 32.7407407,670.909108 L32.7407407,605.454585 Z M163.703704,630.000031 C154.662348,630.000031 147.333333,637.326028 147.333333,646.363661 C147.333333,655.401295 154.662348,662.727292 163.703704,662.727292 L278.296296,662.727292 C287.337652,662.727292 294.666667,655.401295 294.666667,646.363661 C294.666667,637.326028 287.337652,630.000031 278.296296,630.000031 L163.703704,630.000031 Z" id="Shape"></path>
            </g>
        </g>
        <g id="noun_700132_cc" transform="translate(623.000000, 395.000000)">
            <g id="Group">
                <path d="M392.772061,743.026478 L392.772061,771.296717 L412.335091,771.296717 C428.108424,771.296717 443.216,774.102239 457.330061,779.006783 C451.205091,759.572913 451.461152,738.982022 457.575879,720.121543 C437.961636,731.57913 416.083818,739.453022 392.772061,743.026478 Z" id="Shape"></path>
                <path d="M102.501758,631.952391 L104.970182,631.952391 C128.671152,688.124261 179.371152,730.16613 240.723273,741.971848 L240.723273,771.296717 L227.981697,771.296717 C152.177515,771.296717 90.4976364,832.946522 90.4976364,908.736565 C90.4976364,912.606957 90.753697,916.405674 91.0712121,920.173674 L92.1773939,933.545978 L548.139394,933.545978 L549.245576,920.173674 C549.552848,916.405674 549.819152,912.606957 549.819152,908.736565 C549.819152,889.323174 545.722182,870.872261 538.429576,854.110804 C590.092364,881.316174 649.590606,903.012891 649.590606,903.012891 C649.590606,903.012891 659.874,741.818261 630.631879,697.073261 C606.654364,660.386457 562.028121,645.375891 522.051939,657.263522 C527.531636,648.416913 532.345576,639.140261 536.288909,629.38237 L537.804788,629.38237 C593.851333,629.38237 639.440364,583.808 639.440364,527.779478 C639.440364,503.113413 630.590909,480.484935 615.913515,462.87363 C631.901939,452.839283 647.132424,441.187152 661.133818,427.497435 L596.678242,366.615565 L596.678242,232.575109 C596.678242,104.585978 492.564,0.454021739 364.584909,0.454021739 L275.783091,0.454021739 C251.160303,0.454021739 226.803818,4.42680435 203.748121,12.1573478 C191.068,16.171087 178.285455,21.6387826 165.728242,28.4273261 C153.601212,35.0213261 142.293576,42.475413 132.102364,50.5950435 L131.467333,51.107 L104.959939,75.9266522 L103.82303,77.0836739 C91.286303,90.8553043 80.4498182,106.142326 71.6618182,122.483978 C53.2971515,156.3755 43.5770909,194.434348 43.5770909,232.585348 L43.5770909,447.729957 C17.7661818,466.17063 0.855939394,496.304391 0.855939394,530.369978 C0.866181818,586.378022 46.4552121,631.952391 102.501758,631.952391 Z M119.637333,560.247761 L119.637333,294.808543 C147.691333,287.723065 174.260182,273.30637 196.209697,251.312717 C198.54497,248.988435 200.634424,246.520804 202.795576,244.09413 C205.284485,312.419848 233.338485,379.834283 286.998545,430.528217 C291.83297,435.09487 296.82103,439.364587 301.89103,443.501196 C288.104727,464.29687 270.518485,494.123457 270.518485,511.15113 C270.518485,539.380413 293.492242,562.346783 321.730606,562.346783 C349.96897,562.346783 372.942727,539.380413 372.942727,511.15113 C372.942727,503.267 369.132545,492.618304 363.714303,481.406457 C379.866606,488.512413 396.551515,493.939152 413.533455,497.717391 C414.311879,497.932413 415.090303,498.126957 415.909697,498.260065 C438.658121,503.113413 461.887939,505.048609 484.994848,503.983739 C496.968242,503.441065 508.859697,501.843761 520.689697,499.714022 L520.689697,560.268239 C520.689697,646.297413 450.682727,716.28187 364.636121,716.28187 L275.824061,716.28187 C189.685273,716.261391 119.637333,646.287174 119.637333,560.247761 Z M348.207273,473.962609 C356.35,488.461217 362.690061,502.540022 362.690061,511.130652 C362.690061,533.718174 344.315152,552.087174 321.720364,552.087174 C299.125576,552.087174 280.750667,533.718174 280.750667,511.130652 C280.750667,497.686674 296.247455,470.798717 309.972303,449.900652 C322.181273,459.11587 334.984303,467.102391 348.207273,473.962609 Z M457.330061,779.017022 C443.205758,774.102239 428.108424,771.306957 412.335091,771.306957 L392.772061,771.306957 L392.772061,743.036717 C416.094061,739.453022 437.961636,731.57913 457.575879,720.131783 C451.461152,738.992261 451.205091,759.583152 457.330061,779.017022 Z M275.803576,745.401957 L363.622121,745.401957 L363.622121,799.526 C363.622121,825.369565 342.594424,846.3905 316.742545,846.3905 C290.890667,846.3905 269.86297,825.369565 269.86297,799.526 L269.86297,745.105022 C271.85,745.166457 273.796061,745.401957 275.803576,745.401957 Z M119.70903,904.405413 C121.993091,846.677196 169.671576,800.437283 227.961212,800.437283 L240.754,800.437283 C241.245636,841.926239 275.127576,875.531065 316.732303,875.531065 C358.33703,875.531065 392.21897,841.926239 392.710606,800.437283 L412.324848,800.437283 C470.614485,800.437283 518.303212,846.687435 520.57703,904.405413 L119.70903,904.405413 Z M610.290424,527.789717 C610.290424,562.756348 585.380848,592.019783 552.379758,598.787848 L552.379758,492.116587 C565.131576,488.184761 577.576121,483.157348 589.744121,477.300565 C602.444727,490.355457 610.290424,508.171543 610.290424,527.789717 Z M87.9267879,459.361609 L87.9267879,601.34763 C54.9154545,594.589804 30.0161212,565.31613 30.0161212,530.3495 C30.0161212,495.38287 54.9154545,466.119435 87.9267879,459.361609 Z" id="Shape" fill="#ffffff" fill-rule="nonzero"></path>
                <path d="M327.835091,658.885239 C371.324424,658.885239 406.712,639.452632 406.712,615.566577 L406.712,600 L233.594545,600 L233.594545,615.566577 C233.594545,639.452632 268.982121,658.885239 312.471455,658.885239 L327.835091,658.885239 Z M242.833212,615.566577 L242.833212,606.161059 L397.473333,606.161059 L397.473333,615.566577 C397.473333,636.057902 366.233939,652.71735 327.835091,652.71735 L312.471455,652.71735 C274.072606,652.71735 242.833212,636.057902 242.833212,615.566577 Z" id="Shape" fill="#ffffff" fill-rule="nonzero" transform="translate(320.153273, 629.442620) scale(1, -1) translate(-320.153273, -629.442620) "></path>
                <ellipse id="Oval" fill="#ffffff" fill-rule="nonzero" cx="221.006606" cy="477.00363" rx="21.5807879" ry="21.5738478"></ellipse>
            </g>
        </g>
        <g id="noun_700133_cc" transform="translate(4172.000000, 62.000000)">
            <g id="Group">
                <path d="M511.674587,762.717543 L512.76087,762.717543 C513.238022,762.717543 513.69487,762.788609 514.172022,762.788609 C512.253261,758.494239 510.496935,753.96637 509.136543,748.869978 C510.42587,753.702413 511.166978,758.270891 511.674587,762.717543 Z" id="Shape"></path>
                <path d="M331.108022,762.717543 C331.605478,758.270891 332.356739,753.702413 333.646065,748.869978 C332.285674,753.956217 330.529348,758.494239 328.610587,762.788609 C329.087739,762.788609 329.544587,762.717543 330.021739,762.717543 L331.108022,762.717543 L331.108022,762.717543 Z" id="Shape"></path>
                <path d="M748.849674,333.686674 C873.589435,300.265717 752.433391,90.3999783 661.104435,181.718783 C752.423239,90.3999783 542.5575,-30.7662174 509.136543,93.9735435 C542.5575,-30.7662174 300.225109,-30.7662174 333.656217,93.9735435 C300.235261,-30.7662174 90.3695217,90.3999783 181.688326,181.718783 C90.3695217,90.3999783 -30.7966739,300.265717 93.943087,333.686674 C-30.7966739,300.265717 -30.7966739,542.598109 93.943087,509.167 C-30.7966739,542.587957 90.3593696,752.453696 181.688326,661.134891 C127.06963,715.753587 180.206109,781.011761 238.885674,797.976043 C211.251457,822.930087 193.759261,858.909391 193.759261,898.990174 C193.759261,902.827696 194.013065,906.594152 194.327783,910.330152 L195.424217,923.588891 L647.378696,923.588891 L648.47513,910.330152 C648.779696,906.594152 649.043652,902.827696 649.043652,898.990174 C649.043652,858.909391 631.551457,822.930087 603.917239,797.976043 C662.596804,781.011761 715.743435,715.753587 661.114587,661.134891 C752.433391,752.453696 873.599587,542.587957 748.859826,509.167 C873.589435,542.587957 873.589435,300.255565 748.849674,333.686674 Z M371.54413,752.758261 C373.513652,752.819174 375.442565,753.052674 377.432391,753.052674 L464.47713,753.052674 L464.47713,790.707087 C464.47713,816.331174 443.634717,837.173587 418.01063,837.173587 C392.386543,837.173587 371.54413,816.331174 371.54413,790.707087 L371.54413,752.758261 Z M624.434783,573.765283 C624.434783,661.429304 553.115761,732.748326 465.451739,732.748326 L377.432391,732.748326 C289.707457,732.748326 218.347826,661.429304 218.347826,573.765283 L218.347826,431.634848 C218.347826,387.706391 236.99737,345.270304 269.50463,315.230022 L272.763478,312.214826 L272.763478,312.113304 C274.052804,310.986413 275.4335,309.879826 276.814196,308.773239 C301.077891,367.036565 362.985848,421.523283 445.411348,449.451913 C509.502022,471.167413 573.420109,472.477043 624.434783,457.228478 L624.434783,573.765283 Z M651.571543,611.978065 L651.571543,471.187717 C684.292,477.888152 708.971935,506.913217 708.971935,541.582891 C708.971935,576.252565 684.281848,605.267478 651.571543,611.978065 Z M191.211065,473.725761 L191.211065,614.505957 C158.490609,607.805522 133.810674,578.780457 133.810674,544.110783 C133.810674,509.441109 158.490609,480.436348 191.211065,473.725761 Z M333.646065,748.88013 C332.356739,753.702413 331.605478,758.270891 331.108022,762.727696 L330.021739,762.727696 C329.544587,762.727696 329.087739,762.798761 328.610587,762.798761 C330.529348,758.504391 332.285674,753.96637 333.646065,748.88013 Z M620.059196,894.695804 L222.723413,894.695804 C224.977196,837.468 272.245717,791.61063 330.021739,791.61063 L342.701804,791.61063 C343.189109,832.747239 376.7725,866.066674 418.01063,866.066674 C459.248761,866.066674 492.832152,832.747239 493.319457,791.61063 L512.76087,791.61063 C570.536891,791.61063 617.805413,837.468 620.059196,894.695804 Z M512.76087,762.717543 L511.674587,762.717543 C511.17713,758.270891 510.42587,753.702413 509.136543,748.869978 C510.496935,753.956217 512.253261,758.494239 514.172022,762.788609 C513.69487,762.788609 513.238022,762.717543 512.76087,762.717543 Z" id="Shape" fill="#ffffff" fill-rule="nonzero"></path>
                <circle id="Oval" fill="#ffffff" fill-rule="nonzero" cx="323.118261" cy="491.217957" r="21.3906304"></circle>
                <circle id="Oval" fill="#ffffff" fill-rule="nonzero" cx="519.664348" cy="491.217957" r="21.3906304"></circle>
            </g>
        </g>
        <g id="noun_700146_cc" transform="translate(280.000000, 1882.000000)" fill-rule="nonzero" fill="#ffffff">
            <g id="Group">
                <path d="M23.8856818,515.180295 C23.8856818,573.258114 71.1269773,620.499409 129.204795,620.499409 L131.762682,620.499409 C156.33325,678.725818 208.860136,722.305409 272.425205,734.542932 L272.425205,751.609659 L259.221841,751.609659 C180.670318,751.609659 116.755,815.514364 116.755,894.0765 C116.755,898.088455 117.020341,902.026114 117.349364,905.931932 L118.495636,919.793341 L590.9935,919.793341 L592.139773,905.931932 C592.458182,902.026114 592.734136,898.088455 592.734136,894.0765 C592.734136,815.524977 528.829432,751.609659 450.267295,751.609659 L429.99525,751.609659 L429.99525,735.64675 C497.667795,725.256 553.760864,679.553682 578.713523,617.856614 L580.284341,617.856614 C638.362159,617.856614 685.603455,570.615318 685.603455,512.5375 C685.603455,478.404045 669.216,448.112727 643.976773,428.848977 L643.976773,130.860523 C643.976773,129.703636 643.743273,128.578591 643.456705,127.464159 C667.273705,91.537 681.856841,48.9550909 683.693,3.07234091 L246.835727,3.07234091 C246.007864,2.13834091 245.29675,1.13004545 244.447659,0.206659091 L241.581977,3.07234091 L197.323114,3.07234091 C197.747659,13.6010682 198.904545,23.93875 200.623955,34.0747727 L44.3063182,34.0747727 C45.4101364,61.53225 53.0519545,87.2703182 65.5335909,109.962273 L65.5335909,179.120727 L0.907159091,243.747159 C20.0010909,261.365795 42.15175,273.698841 65.5335909,281.107159 L65.5335909,431.491773 C40.2731364,450.744909 23.8856818,481.046841 23.8856818,515.180295 Z M114.101591,588.77525 C79.8938409,581.77025 54.0920909,551.425864 54.0920909,515.180295 C54.0920909,478.934727 79.9044545,448.600955 114.101591,441.585341 L114.101591,588.77525 Z M302.631614,737.790705 C304.701273,737.854386 306.717864,738.0985 308.798136,738.0985 L399.788841,738.0985 L399.788841,780.860841 C399.788841,807.649659 377.999045,829.439455 351.210227,829.439455 C324.421409,829.439455 302.631614,807.649659 302.631614,780.860841 L302.631614,737.790705 L302.631614,737.790705 Z M450.267295,781.805455 C510.6695,781.805455 560.086591,829.74725 562.442818,889.576318 L147.035705,889.576318 C149.402545,829.736636 198.809023,781.805455 259.211227,781.805455 L272.467659,781.805455 C272.977114,824.811909 308.087023,859.645864 351.199614,859.645864 C394.312205,859.645864 429.422114,824.811909 429.931568,781.805455 L450.267295,781.805455 Z M655.397045,512.526886 C655.397045,548.772455 629.584682,579.106227 595.387545,586.121841 L595.387545,438.942545 C629.584682,445.947545 655.397045,476.281318 655.397045,512.526886 Z M273.974795,189.405341 C278.995045,187.632864 283.898545,185.6375 288.685295,183.41925 C330.301364,216.682386 383.072364,236.572341 440.50275,236.572341 C484.931432,236.572341 526.5475,224.642614 562.38975,203.8505 C562.400364,204.752659 562.527727,205.622977 562.527727,206.53575 L562.527727,546.172114 C562.527727,635.347886 489.983523,707.892091 400.818364,707.892091 L308.798136,707.892091 C219.558682,707.892091 146.961409,635.347886 146.961409,546.172114 L146.961409,286.711159 C180.871977,280.9055 213.402773,265.080568 239.586614,238.896727 C254.339568,224.133159 265.685545,207.299932 273.974795,189.405341 Z" id="Shape"></path>
                <circle id="Oval" cx="252.004568" cy="459.88325" r="22.3629318"></circle>
                <circle id="Oval" cx="457.484568" cy="459.88325" r="22.3629318"></circle>
                <path d="M356.368455,548.326682 C385.63025,548.326682 409.436636,524.520295 409.436636,495.2585 C409.436636,467.907159 365.612932,408.545091 360.613909,401.8585 L356.368455,396.180205 L352.123,401.8585 C347.123977,408.545091 303.300273,467.907159 303.300273,495.2585 C303.300273,524.520295 327.106659,548.326682 356.368455,548.326682 Z M356.368455,414.032341 C371.248773,434.782 398.823,477.003045 398.823,495.2585 C398.823,518.672182 379.782136,537.713045 356.368455,537.713045 C332.954773,537.713045 313.913909,518.672182 313.913909,495.2585 C313.913909,477.013659 341.488136,434.792614 356.368455,414.032341 Z" id="Shape"></path>
            </g>
        </g>
        <g id="noun_700141_cc" transform="translate(3724.000000, 1654.000000)" fill-rule="nonzero" fill="#ffffff">
            <g id="Group">
                <path d="M808.058697,301.792716 C787.817215,297.543769 753.487579,305.161159 719.004367,316.085563 L719.004367,232.591178 C719.004367,104.610821 614.930181,0.486001902 487.000328,0.486001902 L398.232675,0.486001902 C373.650076,0.486001902 349.313201,4.45851219 326.215182,12.1885258 C313.509224,16.2224666 300.731596,21.6897875 288.240646,28.4676272 C276.12852,35.0304599 264.825234,42.4840359 254.617466,50.6235866 L253.972441,51.1355081 L227.475246,75.9534589 L226.338774,77.1104014 C213.80687,90.8708494 202.984793,106.156823 194.189936,122.507594 C175.832335,156.386554 166.116014,194.46327 166.116014,232.580939 L166.116014,316.085563 C131.622562,305.171398 97.2929269,297.554007 77.0514448,301.792716 C24.7532706,312.758073 -8.74704775,364.052601 2.21836818,416.350494 C13.1837841,468.648387 64.478587,502.148525 116.776761,491.183168 C122.141727,490.056941 128.110763,487.722579 134.448384,484.517951 C127.445261,498.309115 123.40106,513.851049 123.40106,530.345158 C123.40106,586.369839 168.972551,631.941084 224.997533,631.941084 L227.465007,631.941084 C251.156858,688.109104 301.837352,730.148091 363.165869,741.952999 L363.165869,771.275859 L350.408718,771.275859 C274.633701,771.275859 212.977553,832.921437 212.977553,908.706286 C212.977553,912.576412 213.233515,916.374869 213.550908,920.14261 L214.656664,933.513998 L670.453477,933.513998 L671.559234,920.14261 C671.866388,916.374869 672.132589,912.576412 672.132589,908.706286 C672.132589,832.931676 610.486679,771.275859 534.701423,771.275859 L515.14592,771.275859 L515.14592,743.007558 C580.426491,732.984136 634.536877,688.897463 658.607552,629.381477 L660.122847,629.381477 C716.14783,629.381477 761.71932,583.810232 761.71932,527.78555 C761.71932,512.642915 758.299667,498.309115 752.320392,485.377979 C758.043705,488.152593 763.429147,490.149087 768.333381,491.183168 C820.631555,502.148525 871.916119,468.648387 882.891774,416.350494 C893.85719,364.052601 860.356871,312.768312 808.058697,301.792716 Z M210.428171,601.338421 C177.429538,594.581058 152.539784,565.309391 152.539784,530.345158 C152.539784,495.380924 177.439777,466.119495 210.428171,459.351894 L210.428171,601.338421 Z M392.284116,745.085959 C394.270382,745.147389 396.215694,745.382873 398.222437,745.382873 L486.007195,745.382873 L486.007195,799.503206 C486.007195,825.345 464.987588,846.364494 439.145656,846.364494 C413.303723,846.364494 392.284116,825.345 392.284116,799.503206 L392.284116,745.085959 Z M534.701423,800.414427 C592.968633,800.414427 640.639013,846.661408 642.911956,904.37543 L242.198185,904.37543 C244.481367,846.661408 292.141508,800.414427 350.408718,800.414427 L363.196584,800.414427 C363.688032,841.900539 397.556935,875.503062 439.145656,875.503062 C480.734376,875.503062 514.60328,841.900539 515.094727,800.414427 L534.701423,800.414427 Z M643.004103,560.241369 C643.004103,646.264646 573.024067,716.244305 487.000328,716.244305 L398.232675,716.244305 C312.157744,716.244305 242.126516,646.264646 242.126516,560.241369 L242.126516,358.001689 C254.740328,369.438014 270.4564,376.308 287.564906,376.308 C307.611857,376.308 325.774927,366.919361 339.228294,351.725533 C352.681662,366.919361 370.844732,376.308 390.891683,376.308 C410.938634,376.308 429.101703,366.919361 442.555071,351.725533 C456.008438,366.919361 474.171508,376.308 494.218459,376.308 C514.26541,376.308 532.42848,366.919361 545.881847,351.725533 C559.335215,366.919361 577.498285,376.308 597.545236,376.308 C614.653742,376.308 630.380053,369.438014 642.993864,357.991451 L642.993864,560.241369 L643.004103,560.241369 Z M674.69221,598.778814 L674.69221,456.802525 C707.690842,463.559888 732.580596,492.831555 732.580596,527.795789 C732.580596,562.760022 707.690842,592.021451 674.69221,598.778814 Z" id="Shape"></path>
                <path d="M529.080496,578.363388 L356.029646,578.363388 L529.080496,578.363388 Z M365.029646,610.363388 L519.610271,610.363388 L519.610271,612.989708 C519.610271,618.711539 488.382896,623.363388 449.998821,623.363388 L434.641096,623.363388 C396.257021,623.363388 365.029646,618.711539 365.029646,612.989708 L365.029646,610.363388 Z" id="Shape"></path>
                <ellipse id="Oval" cx="343.44655" cy="485.091303" rx="21.5724849" ry="21.572369"></ellipse>
                <ellipse id="Oval" cx="541.663592" cy="485.091303" rx="21.5724849" ry="21.572369"></ellipse>
                <path d="M444.131797,563.251467 C469.533475,563.251467 490.204974,542.569841 490.204974,517.1683 C490.204974,493.425384 452.158769,441.885135 447.817651,436.090184 L444.131797,431.1655 L440.445943,436.090184 C436.104826,441.885135 398.048383,493.425384 398.048383,517.1683 C398.048383,542.58008 418.719881,563.251467 444.131797,563.251467 Z M444.131797,446.666481 C457.052764,464.686115 480.990338,501.339689 480.990338,517.178538 C480.990338,537.501819 464.465426,554.04712 444.131797,554.04712 C423.798169,554.04712 407.263018,537.512058 407.263018,517.178538 C407.263018,501.339689 431.200593,464.675877 444.131797,446.666481 Z" id="Shape"></path>
            </g>
        </g>
        <g id="noun_1294129_cc" transform="translate(3503.000000, 991.000000)" fill-rule="nonzero" fill="#ffffff">
            <g id="Group">
                <path d="M0,0 L0,338 L442,338 L442,0 L0,0 Z M143.301053,28.3603851 C152.141053,28.3603851 159.12,35.3342503 159.12,44.1678129 C159.12,53.0013755 152.141053,59.9752407 143.301053,59.9752407 C134.461053,59.9752407 127.482105,53.0013755 127.482105,44.1678129 C127.482105,35.3342503 134.461053,28.3603851 143.301053,28.3603851 Z M95.8442105,28.3603851 C104.684211,28.3603851 111.663158,35.3342503 111.663158,44.1678129 C111.663158,53.0013755 104.684211,59.9752407 95.8442105,59.9752407 C87.0042105,59.9752407 80.0252632,53.0013755 80.0252632,44.1678129 C80.0252632,35.3342503 87.0042105,28.3603851 95.8442105,28.3603851 Z M48.3873684,28.3603851 C57.2273684,28.3603851 64.2063158,35.3342503 64.2063158,44.1678129 C64.2063158,53.0013755 57.2273684,59.9752407 48.3873684,59.9752407 C39.5473684,59.9752407 32.5684211,52.5364512 32.5684211,44.1678129 C32.5684211,35.7991747 39.5473684,28.3603851 48.3873684,28.3603851 Z M417.806316,313.823934 L24.1936842,313.823934 L24.1936842,88.3356259 L417.806316,88.3356259 L417.806316,313.823934 Z" id="Shape"></path>
                <path d="M158.409266,229.357143 C165.394466,229.357143 171.448305,227.035714 176.105105,223.321429 L226.398541,251.178571 C226.398541,252.107143 226.398541,253.5 226.398541,254.428571 C226.398541,270.214286 239.43758,283.214286 255.270699,283.214286 C271.103818,283.214286 284.142857,270.214286 284.142857,254.428571 C284.142857,238.642857 271.103818,225.642857 255.270699,225.642857 C248.2855,225.642857 242.23166,227.964286 237.574861,231.678571 L187.281424,203.821429 C187.281424,202.892857 187.281424,201.5 187.281424,200.571429 C187.281424,199.642857 187.281424,198.25 187.281424,197.321429 L237.574861,169.464286 C242.69734,173.178571 248.75118,175.5 255.270699,175.5 C271.103818,175.5 284.142857,162.5 284.142857,146.714286 C284.142857,130.928571 271.103818,117.928571 255.270699,117.928571 C239.43758,117.928571 226.398541,130.928571 226.398541,146.714286 C226.398541,147.642857 226.398541,149.035714 226.398541,149.964286 L176.105105,177.821429 C170.982625,174.107143 164.928786,171.785714 157.943586,171.785714 C142.110468,171.785714 129.071429,184.785714 129.071429,200.571429 C129.537109,216.357143 142.110468,229.357143 158.409266,229.357143 Z" id="Shape"></path>
            </g>
        </g>
        <path d="M549.984375,2454.42187 C656.395833,2448.63802 709.601562,2463.85286 709.601562,2500.06641" id="Path-2" stroke="#ffffff" stroke-width="10"></path>
        <path d="" id="Path-3" stroke="#979797"></path>
        <path d="M4513.22656,684.178464 C4541.64377,655.533605 4566.10911,655.533605 4586.62257,684.178464 C4607.13603,712.823324 4635.92851,712.823324 4673,684.178464" id="Path-4" stroke="#ffffff" stroke-width="10"></path>
        <g id="noun_727759_cc" transform="translate(3407.000000, 231.000000)" fill-rule="nonzero" fill="#ffffff">
            <g id="Group">
                <path d="M96.3916715,0 C48.8660401,0 10.1338153,30.8297167 0.49347449,69.2758143 C-1.78732922,77.9208704 4.09746223,87.8513463 12.7994833,90.039331 C21.5003692,92.2273157 31.412045,86.2695957 33.5242577,77.5815603 C38.7011939,56.9373676 64.3423491,33.9310111 96.3916715,33.9310111 C112.180192,33.9310111 128.749794,39.7049381 140.433094,49.1292765 C152.116963,58.5536148 158.902609,70.6896064 158.902609,84.8275277 C158.902609,103.395142 155.097674,111.72973 150.022915,118.228084 C144.948722,124.727004 136.817754,129.779331 126.226037,137.314278 C115.634888,144.84979 103.028595,155.253829 93.9048121,172.129418 C84.7821649,189.005006 79.5200817,211.59797 79.5200817,243.172472 C78.6368237,252.544783 87.0294775,261.725949 96.4796567,261.725949 C105.930404,261.725949 114.323057,252.544783 113.439799,243.172472 C113.439799,215.367705 118.137074,198.90551 123.917419,188.211021 C129.698331,177.518228 136.835918,171.662866 146.115804,165.060457 C155.395689,158.458048 167.18741,151.669018 177.016209,139.081518 C186.845576,126.494244 193,108.673677 193,84.8275277 C193,59.3792694 179.856145,37.4078087 161.744247,22.7971153 C143.631215,8.18698746 120.300943,0 96.3916715,0 L96.3916715,0 Z M96.5676419,282.758652 C84.0135715,282.758652 73.8368048,292.886493 73.8368048,305.379326 C73.8368048,317.872159 84.0135715,328 96.5676419,328 C109.121145,328 119.299047,317.872159 119.299047,305.379326 C119.299047,292.886493 109.121145,282.758652 96.5676419,282.758652 Z" id="Shape"></path>
            </g>
        </g>
        <g id="noun_727759_cc" transform="translate(1874.500000, 2588.000000) scale(-1, -1) translate(-1874.500000, -2588.000000) translate(1778.000000, 2424.000000)" fill-rule="nonzero" fill="#ffffff">
            <g id="Group">
                <path d="M96.3916715,0 C48.8660401,0 10.1338153,30.8297167 0.49347449,69.2758143 C-1.78732922,77.9208704 4.09746223,87.8513463 12.7994833,90.039331 C21.5003692,92.2273157 31.412045,86.2695957 33.5242577,77.5815603 C38.7011939,56.9373676 64.3423491,33.9310111 96.3916715,33.9310111 C112.180192,33.9310111 128.749794,39.7049381 140.433094,49.1292765 C152.116963,58.5536148 158.902609,70.6896064 158.902609,84.8275277 C158.902609,103.395142 155.097674,111.72973 150.022915,118.228084 C144.948722,124.727004 136.817754,129.779331 126.226037,137.314278 C115.634888,144.84979 103.028595,155.253829 93.9048121,172.129418 C84.7821649,189.005006 79.5200817,211.59797 79.5200817,243.172472 C78.6368237,252.544783 87.0294775,261.725949 96.4796567,261.725949 C105.930404,261.725949 114.323057,252.544783 113.439799,243.172472 C113.439799,215.367705 118.137074,198.90551 123.917419,188.211021 C129.698331,177.518228 136.835918,171.662866 146.115804,165.060457 C155.395689,158.458048 167.18741,151.669018 177.016209,139.081518 C186.845576,126.494244 193,108.673677 193,84.8275277 C193,59.3792694 179.856145,37.4078087 161.744247,22.7971153 C143.631215,8.18698746 120.300943,0 96.3916715,0 L96.3916715,0 Z M96.5676419,282.758652 C84.0135715,282.758652 73.8368048,292.886493 73.8368048,305.379326 C73.8368048,317.872159 84.0135715,328 96.5676419,328 C109.121145,328 119.299047,317.872159 119.299047,305.379326 C119.299047,292.886493 109.121145,282.758652 96.5676419,282.758652 Z" id="Shape"></path>
            </g>
        </g>
    </g>
</svg>
